# xmcd
# 
# Track frame offsets:
#     150
#     10493
#     21451
#     35644
#     53802
#     67730
#     81613
#     94096
#     110849
#     122486
#     133766
#     146287
#     157046
#     171673
#     183238
#     194954
#     205894
#     216379
#     226925
#     238910
#     250036
# 
# Disc length: 3468
# 
# Revision: 1
# Processed by: cddbd v1.5.2PL0 Copyright (c) Steve Scherf et al.
# Submitted via: fre:ac v1.0.17
# 
DISCID=420d8a15
DTITLE=Various Artist - Classic Songs - Country Style [CD4)
DYEAR=2004
DGENRE=Country
TTITLE0=Statler Brothers (The) - Hello Mary Lou
TTITLE1=Waylon Jennings - That'll Be The Day
TTITLE2=Crystal Gayle (1951 -    ) - Green Door
TTITLE3=Dolly Parton - House Of The Rising Sun
TTITLE4=Don Williams (1939-    ) - Crying In The Rain
TTITLE5=Hank Williams Jnr - A Rainy Night In Georgia
TTITLE6=Jody Miller - To Know Him Is To Love Him
TTITLE7=Dolly Parton - The Great Pretender
TTITLE8=Glen Campbell (1936-    ) - Bobbie Gentry - All I Have To Do Is Dream
TTITLE9=Don Gibson - Maybe Tomorrow
TTITLE10=Dolly Parton - I Can't Help Myself
TTITLE11=Eddy Arnold (1918-    ) - Hey, Good Lookin'
TTITLE12=Dolly Parton - Downtown
TTITLE13=Glen Campbell (1936-    ) - (Sittin' On) The Dock Of The Bay
TTITLE14=Charlie Rich - Try A Little Tenderness
TTITLE15=Tammy Wynette (1942-1998) - Crying In The Chapel
TTITLE16=Slim Whitman - Blueberry Hill
TTITLE17=Charlie Rich - CC Rider
TTITLE18=Waylon Jennings - Cryin'
TTITLE19=Waylon Jennings - Dream Baby (How Long Must I Dream)
TTITLE20=Roger Miller - Heartbreak Hotel
EXTD=
EXTT0=
EXTT1=
EXTT2=
EXTT3=
EXTT4=
EXTT5=
EXTT6=
EXTT7=
EXTT8=
EXTT9=
EXTT10=
EXTT11=
EXTT12=
EXTT13=
EXTT14=
EXTT15=
EXTT16=
EXTT17=
EXTT18=
EXTT19=
EXTT20=
PLAYORDER=
